<svg xmlns="http://www.w3.org/2000/svg" viewBox="0 0 600 1100" role="img" aria-labelledby="title desc">
<title id="title">Anatomische Trainingsdarstellung</title>
<desc id="desc">Hochauflösende transparente Vektorgrafik mit hervorgehobenen Schulter-, Brust- und Armbereichen.</desc>
<defs>
  <linearGradient id="skin" x1="0" y1="0" x2="1" y2="1"><stop stop-color="#f3f5f8"/><stop offset=".34" stop-color="#bbc3ce"/><stop offset=".63" stop-color="#707b89"/><stop offset="1" stop-color="#dce2e8"/></linearGradient>
  <linearGradient id="skinDark" x1="0" y1="0" x2="1" y2="0"><stop stop-color="#4c5765"/><stop offset=".5" stop-color="#cbd2da"/><stop offset="1" stop-color="#596473"/></linearGradient>
  <linearGradient id="shorts" x1="0" y1="0" x2="0" y2="1"><stop stop-color="#1a2029"/><stop offset="1" stop-color="#06090d"/></linearGradient>
  <radialGradient id="fire" cx="50%" cy="45%" r="65%"><stop stop-color="#ffd0af" stop-opacity=".98"/><stop offset=".36" stop-color="#ff765c" stop-opacity=".9"/><stop offset=".76" stop-color="#ff4d35" stop-opacity=".4"/><stop offset="1" stop-color="#ff3c28" stop-opacity="0"/></radialGradient>
  <linearGradient id="fireLine" x1="0" y1="0" x2="1" y2="1"><stop stop-color="#ffb18e"/><stop offset="1" stop-color="#ff4c37"/></linearGradient>
  <filter id="softShadow" x="-40%" y="-40%" width="180%" height="180%"><feDropShadow dx="0" dy="24" stdDeviation="18" flood-color="#000" flood-opacity=".52"/></filter>
  <filter id="glow" x="-100%" y="-100%" width="300%" height="300%"><feGaussianBlur stdDeviation="13" result="b"/><feMerge><feMergeNode in="b"/><feMergeNode in="SourceGraphic"/></feMerge></filter>
  <clipPath id="torsoClip"><path d="M204 244 C232 208 270 194 311 195 C359 196 404 216 429 254 C443 276 448 312 444 351 C440 405 422 471 397 524 C379 561 356 591 325 606 C289 623 244 614 217 587 C186 556 169 510 158 459 C146 401 144 334 158 291 C167 267 181 252 204 244Z"/></clipPath>
</defs>

<g opacity=".25" fill="none" stroke="#ff765c" stroke-width="2"><path d="M187 236 C139 278 121 348 122 428 C124 507 148 609 171 704"/><path d="M436 237 C481 286 493 359 485 435 C477 515 453 611 431 706"/></g>

<g filter="url(#softShadow)" stroke="#495462" stroke-width="3" stroke-linejoin="round">
  <ellipse cx="309" cy="118" rx="71" ry="91" fill="url(#skin)"/>
  <path d="M261 184 L258 228 C277 249 340 252 363 226 L356 177 C336 196 284 201 261 184Z" fill="url(#skinDark)"/>
  <path d="M204 244 C232 208 270 194 311 195 C359 196 404 216 429 254 C443 276 448 312 444 351 C440 405 422 471 397 524 C379 561 356 591 325 606 C289 623 244 614 217 587 C186 556 169 510 158 459 C146 401 144 334 158 291 C167 267 181 252 204 244Z" fill="url(#skin)"/>
  <path d="M175 262 C129 272 95 313 78 367 C61 421 57 493 67 548 C73 584 91 604 116 596 C137 590 145 562 145 526 C143 462 147 399 174 339Z" fill="url(#skinDark)"/>
  <path d="M433 258 C480 273 507 321 517 378 C527 436 522 505 508 553 C497 589 477 606 455 594 C433 582 432 552 438 519 C451 448 457 386 430 334Z" fill="url(#skin)"/>
  <path d="M109 575 C86 603 76 650 83 694 C88 727 103 750 124 742 C145 734 151 704 148 675 C144 636 142 606 132 580Z" fill="url(#skinDark)"/>
  <path d="M462 579 C479 606 485 645 480 687 C476 721 461 745 441 740 C419 734 414 705 418 674 C422 637 425 606 436 581Z" fill="url(#skin)"/>
  <path d="M206 556 C222 585 242 604 270 614 L268 694 L162 694 C164 644 176 592 206 556Z" fill="url(#shorts)" stroke="#080b10"/>
  <path d="M395 548 C378 583 355 606 326 617 L328 694 L438 694 C433 642 422 588 395 548Z" fill="url(#shorts)" stroke="#080b10"/>
  <path d="M266 611 C286 620 307 621 329 615 L331 696 L267 696Z" fill="#10151c" stroke="#080b10"/>
  <path d="M188 690 C164 749 160 824 168 901 C174 957 190 1027 216 1037 C239 1045 251 1016 248 972 C242 888 251 807 281 701Z" fill="url(#skinDark)"/>
  <path d="M414 691 C438 750 443 823 435 899 C429 958 414 1027 387 1038 C365 1046 350 1018 355 971 C363 881 352 806 321 700Z" fill="url(#skin)"/>
  <path d="M167 899 C152 942 151 1009 167 1050 C178 1079 201 1092 220 1077 C235 1064 237 1037 227 1015 C209 977 200 940 202 899Z" fill="url(#skinDark)"/>
  <path d="M436 898 C451 944 452 1007 437 1051 C427 1080 402 1092 384 1078 C369 1066 367 1038 377 1015 C394 976 403 939 401 898Z" fill="url(#skin)"/>
</g>

<g clip-path="url(#torsoClip)" fill="none" stroke="#596574" stroke-width="3" opacity=".9">
  <path d="M183 272 C232 239 278 250 309 286 C339 251 389 239 425 271"/>
  <path d="M172 324 C218 292 273 304 307 341 C343 305 398 292 438 325"/>
  <path d="M309 286 L309 579"/><path d="M225 373 C250 350 280 355 307 378 C335 354 369 350 394 372"/>
  <path d="M217 419 C244 399 280 405 307 428 C337 405 369 399 399 419"/>
  <path d="M215 465 C245 446 279 452 307 476 C335 451 369 446 399 466"/>
  <path d="M220 511 C248 494 279 500 307 526 C337 501 365 494 391 512"/>
</g>
<g fill="none" stroke="#566271" stroke-width="3" opacity=".9"><path d="M104 329 C123 358 129 398 126 444 M93 394 C111 423 117 458 115 500 M477 328 C459 361 454 401 456 447 M492 397 C474 424 468 461 468 501"/><path d="M183 742 C215 760 232 808 228 866 M421 741 C389 761 372 808 376 867"/></g>

<g filter="url(#glow)">
  <ellipse cx="187" cy="282" rx="72" ry="66" fill="url(#fire)"/>
  <ellipse cx="428" cy="282" rx="72" ry="66" fill="url(#fire)"/>
  <path d="M171 296 C135 325 118 379 115 446 C114 494 120 535 132 563 C147 548 157 518 159 475 C162 406 173 356 205 320Z" fill="url(#fire)" opacity=".82"/>
  <path d="M441 298 C475 329 491 381 493 446 C494 493 486 535 475 560 C459 545 450 516 449 475 C447 405 436 356 405 321Z" fill="url(#fire)" opacity=".82"/>
  <path d="M186 273 C225 239 270 246 309 286 C348 247 391 239 430 273 C410 326 372 348 309 350 C247 348 208 326 186 273Z" fill="url(#fire)" opacity=".46"/>
</g>
<g fill="none" stroke="url(#fireLine)" stroke-width="5" opacity=".9"><path d="M141 281 C160 250 190 239 217 253 C238 264 244 286 232 310 C217 336 190 345 164 331 C141 318 131 300 141 281Z"/><path d="M379 253 C407 239 438 251 456 282 C466 302 455 321 433 333 C407 347 381 336 366 311 C353 287 359 265 379 253Z"/><path d="M132 330 C112 376 106 431 111 487 C114 526 123 554 135 568"/><path d="M477 331 C496 377 501 431 496 488 C492 526 485 553 474 566"/></g>
</svg>